HIERARCHY
ROOT Hips
{
 OFFSET 0.000000 0.000000 0.000000
 CHANNELS 6 Xposition Yposition Zposition Yrotation Xrotation Zrotation
 JOINT Chest
 {
  OFFSET 0.000000 9.910571 -0.011835
  CHANNELS 3 Yrotation Xrotation Zrotation
  JOINT Chest2
  {
   OFFSET 0.000000 10.789473 0.021497
   CHANNELS 3 Yrotation Xrotation Zrotation
   JOINT Chest3
   {
    OFFSET 0.000000 9.748205 0.000000
    CHANNELS 3 Yrotation Xrotation Zrotation
    JOINT Chest4
    {
     OFFSET 0.000000 9.748205 0.000000
     CHANNELS 3 Yrotation Xrotation Zrotation
     JOINT Neck
     {
      OFFSET 0.000000 13.998479 0.000000
      CHANNELS 3 Yrotation Xrotation Zrotation
      JOINT Head
      {
       OFFSET 0.000000 9.082285 0.051121
       CHANNELS 3 Yrotation Xrotation Zrotation
       End Site
       {
        OFFSET 0.000000 17.246134 0.026702
       }
      }
     }
     JOINT RightCollar
     {
      OFFSET -3.284495 7.824262 0.000000
      CHANNELS 3 Yrotation Xrotation Zrotation
      JOINT RightShoulder
      {
       OFFSET -15.534540 0.000000 0.000000
       CHANNELS 3 Yrotation Xrotation Zrotation
       JOINT RightElbow
       {
        OFFSET 0.000000 -28.251216 0.000000
        CHANNELS 3 Yrotation Xrotation Zrotation
        JOINT RightWrist
        {
         OFFSET 0.000000 -23.418114 0.012537
         CHANNELS 3 Yrotation Xrotation Zrotation
         End Site
         {
          OFFSET 0.000000 -17.723959 0.000000
         }
        }
       }
      }
     }
     JOINT LeftCollar
     {
      OFFSET 3.284495 7.824262 0.000000
      CHANNELS 3 Yrotation Xrotation Zrotation
      JOINT LeftShoulder
      {
       OFFSET 15.534540 0.000000 0.000000
       CHANNELS 3 Yrotation Xrotation Zrotation
       JOINT LeftElbow
       {
        OFFSET 0.000000 -28.251216 0.000000
        CHANNELS 3 Yrotation Xrotation Zrotation
        JOINT LeftWrist
        {
         OFFSET 0.000000 -23.418114 0.012537
         CHANNELS 3 Yrotation Xrotation Zrotation
         End Site
         {
          OFFSET 0.000000 -17.723959 0.000000
         }
        }
       }
      }
     }
    }
   }
  }
 }
 JOINT RightHip
 {
  OFFSET -8.142657 0.057990 0.005917
  CHANNELS 3 Yrotation Xrotation Zrotation
  JOINT RightKnee
  {
   OFFSET 0.000000 -49.716894 0.008478
   CHANNELS 3 Yrotation Xrotation Zrotation
   JOINT RightAnkle
   {
    OFFSET 0.000000 -43.994153 0.004166
    CHANNELS 3 Yrotation Xrotation Zrotation
    JOINT RightToe
    {
     OFFSET 0.000000 -7.619154 17.822051
     CHANNELS 3 Yrotation Xrotation Zrotation
     End Site
     {
      OFFSET 0.000000 -1.595627 7.159905
     }
    }
   }
  }
 }
 JOINT LeftHip
 {
  OFFSET 8.142657 0.057990 0.005917
  CHANNELS 3 Yrotation Xrotation Zrotation
  JOINT LeftKnee
  {
   OFFSET 0.000000 -49.716894 0.008478
   CHANNELS 3 Yrotation Xrotation Zrotation
   JOINT LeftAnkle
   {
    OFFSET 0.000000 -43.994153 0.004166
    CHANNELS 3 Yrotation Xrotation Zrotation
    JOINT LeftToe
    {
     OFFSET 0.000000 -7.619154 17.822051
     CHANNELS 3 Yrotation Xrotation Zrotation
     End Site
     {
      OFFSET 0.000000 -1.595627 7.159905
     }
    }
   }
  }
 }
}
MOTION
Frames: 13
Frame Time: 0.008333
496.536394 57.158569 374.039982 -55.582684 -55.352779 4.164743 -1.217200 21.998716 -3.027459 -0.385047 9.780504 -1.278337 -0.385047 9.780504 -1.278337 -0.267445 7.336222 -0.950194 -5.368332 16.192987 -1.777887 -9.341222 -6.064965 -1.372320 -0.666772 9.497430 12.509171 26.136031 -15.275310 -22.792643 -13.443025 -45.424309 39.258684 10.942358 -8.759921 -13.890822 -2.146509 13.358502 -10.950780 -9.868484 -19.991399 20.523892 27.739070 -66.014042 -21.285570 -34.182594 12.073475 -16.496446 -13.363134 -30.841750 1.236214 -31.377428 70.966271 -44.412547 0.541341 10.033259 -1.129728 0.066534 0.031183 0.025260 13.356462 -30.003356 10.427399 26.020852 71.373845 16.766640 6.013435 9.226160 7.638826 -0.041728 0.002565 -0.016825
496.541059 57.158175 374.040980 -55.577721 -55.345902 4.168994 -1.223219 21.993551 -3.035663 -0.384867 9.779448 -1.278828 -0.384867 9.779448 -1.278828 -0.267305 7.335430 -0.950565 -5.352126 16.200167 -1.785549 -9.308100 -6.052752 -1.392780 -0.660648 9.498717 12.506751 26.123616 -15.265766 -22.787736 -13.446936 -45.433440 39.267649 10.940811 -8.762255 -13.908268 -2.134868 13.354021 -10.943687 -9.880776 -19.980154 20.526083 27.744837 -66.014058 -21.305247 -34.171541 12.072925 -16.473632 -13.364760 -30.851224 1.225630 -31.392574 70.959259 -44.426673 0.559892 10.032068 -1.129654 0.067962 0.033139 0.025372 13.351894 -30.008588 10.421895 26.025736 71.375157 16.762272 5.921864 9.262311 7.633120 -0.053010 -0.007628 -0.021980
496.542481 57.158394 374.039459 -55.583873 -55.343542 4.169632 -1.217622 21.990718 -3.031567 -0.383387 9.778714 -1.278061 -0.383387 9.778714 -1.278061 -0.266212 7.334875 -0.950017 -5.336470 16.204505 -1.790277 -9.277151 -6.045599 -1.407421 -0.660616 9.496220 12.499251 26.113173 -15.256883 -22.780464 -13.459166 -45.438427 39.283303 10.949227 -8.761845 -13.913307 -2.126788 13.352997 -10.938197 -9.890366 -19.968044 20.526435 27.699943 -65.961753 -21.261638 -34.166220 12.009495 -16.439521 -13.363982 -30.852724 1.231890 -31.386481 70.959443 -44.411999 0.537250 10.034489 -1.144457 0.077314 0.031977 0.028718 13.352038 -30.009437 10.424383 26.025567 71.372408 16.762659 5.916377 9.263235 7.630750 -0.056499 -0.002906 -0.022446
496.542838 57.157851 374.036355 -55.588041 -55.336769 4.168183 -1.209757 21.987354 -3.027597 -0.381345 9.777455 -1.276966 -0.381345 9.777455 -1.276966 -0.264705 7.333926 -0.949231 -5.321094 16.210046 -1.793801 -9.247122 -6.036124 -1.419794 -0.657346 9.492545 12.492779 26.104230 -15.244671 -22.764819 -13.475061 -45.451205 39.281826 10.955167 -8.754312 -13.903823 -2.130858 13.352315 -10.930492 -9.892551 -19.954132 20.520302 27.705592 -65.973275 -21.281401 -34.161488 12.021096 -16.418908 -13.367395 -30.859995 1.238001 -31.366341 70.964730 -44.392247 0.576149 10.037848 -1.140159 0.081425 0.030455 0.030479 13.347003 -30.014685 10.428593 26.030094 71.367307 16.763596 5.935171 9.258811 7.629868 -0.055647 0.003156 -0.020696
496.541558 57.158287 374.035448 -55.593279 -55.335920 4.170403 -1.206568 21.984723 -3.028979 -0.380565 9.776325 -1.277316 -0.380565 9.776325 -1.277316 -0.264118 7.333077 -0.949508 -5.303568 16.215341 -1.798909 -9.212534 -6.027278 -1.435863 -0.647777 9.492256 12.488468 26.085928 -15.240108 -22.748493 -13.472572 -45.453287 39.282572 10.962978 -8.752917 -13.910404 -2.119802 13.352656 -10.922778 -9.896162 -19.942364 20.518533 27.652599 -65.926109 -21.226352 -34.153264 11.965104 -16.388952 -13.371193 -30.862812 1.243330 -31.369354 70.969207 -44.395013 0.538849 10.036668 -1.148063 0.076109 0.027734 0.028415 13.348492 -30.015033 10.427194 26.034555 71.362956 16.767754 6.007229 9.241242 7.638113 -0.049070 0.007593 -0.018382
496.539851 57.159562 374.035144 -55.599510 -55.337860 4.176548 -1.199633 21.983332 -3.026662 -0.379510 9.775347 -1.277155 -0.379510 9.775347 -1.277155 -0.263333 7.332341 -0.949405 -5.286650 16.222117 -1.803158 -9.179344 -6.015603 -1.450204 -0.656750 9.495890 12.484596 26.084124 -15.225983 -22.735266 -13.475385 -45.460640 39.283357 10.966042 -8.747384 -13.922284 -2.114982 13.359582 -10.921940 -9.907001 -19.931997 20.517514 27.645986 -65.936995 -21.230728 -34.143376 11.971690 -16.370264 -13.372841 -30.863071 1.243780 -31.371400 70.970943 -44.397601 0.521531 10.038763 -1.153484 0.073255 0.023519 0.027430 13.343962 -30.008047 10.429778 26.038493 71.361750 16.766528 6.036674 9.228146 7.636511 -0.043322 0.012398 -0.016123
496.538126 57.161517 374.032971 -55.604585 -55.341273 4.179214 -1.200475 21.981616 -3.026043 -0.379708 9.774842 -1.277818 -0.379708 9.774842 -1.277818 -0.263471 7.331964 -0.949898 -5.272269 16.228546 -1.808216 -9.150593 -6.004521 -1.465115 -0.652388 9.504886 12.476605 26.077796 -15.220923 -22.720205 -13.470641 -45.469122 39.279743 10.964587 -8.743132 -13.925693 -2.105278 13.363070 -10.921378 -9.909176 -19.926490 20.509749 27.562247 -65.892159 -21.142706 -34.130495 11.911563 -16.347246 -13.379303 -30.856562 1.243786 -31.349318 70.969588 -44.378894 0.553085 10.038529 -1.150705 0.073581 0.024527 0.027549 13.339320 -30.001778 10.433043 26.029236 71.358453 16.758245 6.037427 9.233581 7.633411 -0.043778 0.010818 -0.018815
496.537042 57.162942 374.031272 -55.603905 -55.341782 4.178464 -1.197342 21.979884 -3.022153 -0.378034 9.774296 -1.276995 -0.378034 9.774296 -1.276995 -0.262234 7.331550 -0.949310 -5.264578 16.233427 -1.813422 -9.134272 -5.996067 -1.477818 -0.654269 9.513228 12.468601 26.063790 -15.217285 -22.704271 -13.457741 -45.480512 39.271851 10.964031 -8.747559 -13.928502 -2.100374 13.370835 -10.917245 -9.923218 -19.922797 20.503594 27.549081 -65.903437 -21.139137 -34.126894 11.913573 -16.346233 -13.386694 -30.851482 1.256314 -31.350342 70.964581 -44.386931 0.515533 10.034556 -1.158105 0.079748 0.026479 0.030022 13.332755 -29.999546 10.436116 26.028872 71.358517 16.757344 6.001302 9.245530 7.626964 -0.046421 0.008203 -0.021946
496.532137 57.162132 374.028146 -55.611495 -55.337236 4.184972 -1.194934 21.973426 -3.021377 -0.378018 9.771600 -1.278441 -0.378018 9.771600 -1.278441 -0.262205 7.329529 -0.950395 -5.252955 16.240679 -1.819231 -9.110358 -5.983395 -1.493182 -0.649930 9.524677 12.463009 26.049735 -15.217102 -22.694836 -13.451869 -45.484899 39.273668 10.961218 -8.740558 -13.934083 -2.087381 13.382576 -10.909480 -9.928755 -19.919929 20.493702 27.489772 -65.862133 -21.080475 -34.122200 11.858558 -16.329628 -13.389984 -30.858784 1.265819 -31.368392 70.967385 -44.410985 0.518061 10.033691 -1.158019 0.078307 0.023297 0.030238 13.330235 -30.004225 10.437689 26.029374 71.359728 16.750709 6.077414 9.225871 7.640705 -0.041097 0.011282 -0.022338
496.530670 57.162131 374.026201 -55.612575 -55.334059 4.188817 -1.193853 21.968001 -3.025836 -0.376190 9.769937 -1.277637 -0.376190 9.769937 -1.277637 -0.260854 7.328277 -0.949825 -5.242642 16.248542 -1.824594 -9.089022 -5.969510 -1.507286 -0.650673 9.537740 12.466897 26.041176 -15.211891 -22.689306 -13.446728 -45.494270 39.262805 10.959155 -8.737424 -13.935557 -2.079790 13.392421 -10.911117 -9.932308 -19.915430 20.495630 27.471227 -65.865165 -21.088205 -34.110679 11.857746 -16.311180 -13.396337 -30.865737 1.262778 -31.352909 70.976627 -44.397586 0.520413 10.033727 -1.158106 0.073645 0.020706 0.027498 13.320498 -30.004451 10.439725 26.029775 71.358782 16.744943 6.038901 9.242438 7.637456 -0.044881 0.006752 -0.027212
496.527290 57.161638 374.024682 -55.603687 -55.332569 4.181243 -1.194231 21.964428 -3.020418 -0.376063 9.767833 -1.275864 -0.376063 9.767833 -1.275864 -0.260792 7.326698 -0.948503 -5.235379 16.253922 -1.832699 -9.072445 -5.960281 -1.525240 -0.651882 9.548497 12.460829 26.029199 -15.210903 -22.685198 -13.446163 -45.496802 39.265562 10.962426 -8.735688 -13.938044 -2.077481 13.398894 -10.918033 -9.926634 -19.913527 20.491298 27.396626 -65.823383 -21.025679 -34.098917 11.807918 -16.292424 -13.411465 -30.868028 1.269638 -31.364474 70.980030 -44.413442 0.518061 10.027018 -1.160065 0.075116 0.021452 0.026737 13.307008 -30.008957 10.441973 26.028695 71.364759 16.741664 6.056909 9.240600 7.639223 -0.045612 0.005217 -0.028247
496.523501 57.162933 374.024420 -55.606669 -55.334195 4.190324 -1.196683 21.963237 -3.029710 -0.375027 9.766461 -1.277407 -0.375027 9.766461 -1.277407 -0.259996 7.325668 -0.949676 -5.225581 16.260839 -1.837000 -9.052482 -5.948061 -1.537127 -0.636844 9.554559 12.473260 26.014370 -15.200457 -22.681450 -13.440064 -45.506201 39.255889 10.952751 -8.729137 -13.940672 -2.076117 13.408038 -10.916047 -9.919616 -19.910763 20.488966 27.376166 -65.827796 -21.026496 -34.091191 11.811291 -16.285421 -13.412368 -30.866857 1.265235 -31.380997 70.981412 -44.437021 0.523230 10.018127 -1.154040 0.067822 0.023824 0.024686 13.302653 -30.001697 10.437302 26.039877 71.359758 16.747212 6.091179 9.232791 7.644762 -0.045114 0.006910 -0.028889
496.526401 57.162369 374.025930 -55.599936 -55.328227 4.197073 -1.205034 21.955534 -3.041055 -0.375639 9.763811 -1.278101 -0.375639 9.763811 -1.278101 -0.260448 7.323682 -0.950188 -5.217044 16.265902 -1.844298 -9.033843 -5.939411 -1.554016 -0.632727 9.564816 12.472065 26.007177 -15.197779 -22.677847 -13.440289 -45.508982 39.255946 10.944883 -8.727680 -13.946941 -2.070366 13.414343 -10.914493 -9.913928 -19.903433 20.479834 27.304551 -65.783728 -20.959701 -34.079147 11.757456 -16.262998 -13.414033 -30.876378 1.256054 -31.398583 70.980107 -44.457916 0.528066 10.011437 -1.156410 0.072469 0.027187 0.027929 13.301579 -30.003930 10.427733 26.026202 71.364519 16.732705 5.943031 9.278956 7.628224 -0.057916 -0.003325 -0.035754
